<?xml version="1.0" encoding="utf-8"?>
<!-- Generator: Adobe Illustrator 28.3.0, SVG Export Plug-In . SVG Version: 6.00 Build 0)  -->
<svg version="1.1" id="Capa_1" xmlns="http://www.w3.org/2000/svg" xmlns:xlink="http://www.w3.org/1999/xlink" x="0px" y="0px"
	 viewBox="0 0 170 50" style="enable-background:new 0 0 170 50;" xml:space="preserve">
<style type="text/css">
	.st0{fill:#004A6B;}
	.st1{fill:#80BCD9;}
	.st2{fill:#B2B2B2;}
	.st3{fill:#575756;}
	.st4{fill:#9D9D9C;}
	.st5{fill:#706F6F;}
	.st6{fill:#3C3C3B;}
</style>
<g>
	<g>
		<path class="st0" d="M32.44,46.75c0,0-4.72-5.09-4.49-10.05s2.73-8.3,5.13-10.83s8.63-9.21,16.53-6.61c0,0-3.71-4.6-17.61,2.15
			c-0.32,0.16-0.71,0.06-0.91-0.23c-0.9-1.26-3.61-4.42-8.53-5.15C16.39,15.11,0.18,14,0.18,14s-0.45,2.7,3.36,3.07
			c2.92,0.28,8.93,0.84,11.6,1.09c0.11,0.01,0.1,0.17-0.01,0.17L2.59,18.81c-0.15,0.01-0.26,0.14-0.22,0.29
			c0.14,0.61,0.73,2.02,3.26,2.25c1.96,0.18,5.38,0.08,7.78-0.02c0.11,0,0.12,0.16,0.01,0.17l-7.85,0.92
			c-0.18,0.02-0.27,0.23-0.16,0.38c0.33,0.46,1.22,1.19,3.43,0.98c3.14-0.3,8.7-0.98,9.17-0.91c0.39,0.06-6.1,1.58-8.39,2.11
			c-0.25,0.06-0.24,0.41,0,0.46c0.49,0.11,1.21,0.19,2.15,0.06c1.48-0.21,5.48-0.8,7.52-1.04c0.11-0.01,0.14,0.14,0.03,0.17
			c-2.37,0.57-7.57,1.84-7.62,1.91c-0.06,0.1,0.8,1.21,7.88-0.39c0.11-0.02,0.15,0.13,0.05,0.17l-3.46,1.3
			c-0.25,0.1-0.17,0.47,0.1,0.46c1.38-0.08,3.72-0.41,4.89-0.58c0.1-0.02,0.14,0.13,0.05,0.17l-3.37,1.4
			c-0.23,0.09-0.18,0.42,0.06,0.45c0.62,0.08,1.76,0.01,3.72-0.7c0.1-0.03,0.16,0.1,0.08,0.15l-1.87,1.22
			c-0.24,0.16-0.19,0.51,0.08,0.6c0.71,0.23,1.75,0.69,2.18,1.51C22.49,33.07,23.94,43.31,32.44,46.75z"/>
		<path class="st1" d="M34.63,19.04c0.39-0.21,0.51-0.71,0.25-1.07C33.61,16.2,29.76,11.36,23,7.49C16.95,4.03,12,1.35,9.68,0.12
			C9.04-0.23,8.26,0.24,8.26,0.97v0c0,0.34,0.18,0.66,0.47,0.83c1.87,1.11,8.78,5.25,10.87,7.22c0.07,0.07-0.02,0.18-0.1,0.13
			C17.59,7.96,10.96,3.92,9,3.92c-1.18,0-0.34,2.12,0.44,2.43c0.73,0.29,4.22,1.83,6.11,3.39c0.26,0.21,0.01,0.63-0.3,0.49l-0.01,0
			c-0.27-0.12-2.61-2-4.5-2.39c-0.4-0.08-0.72,0.34-0.53,0.71c0.2,0.4,0.58,0.89,1.29,1.28c1.48,0.81,3.85,1.62,3.71,2.12
			s-2.16-1.01-2.53-0.91c-0.37,0.1-0.78,1.89,2.87,2.7c3.64,0.81,7.5,1.11,11.57,2.8c1.67,0.7,3.33,2.79,4.02,3.74
			c0.2,0.27,0.57,0.36,0.86,0.2L34.63,19.04z"/>
		<path class="st0" d="M42.12,26.05c0,0,3.33-3.82,7.49-4.05c4.16-0.22,6.95,1.17,6.95,1.17s-4.25-0.97-7.38-0.34
			S42.12,26.05,42.12,26.05z"/>
		<path class="st2" d="M38.12,38.33c0,0,3.06-2.41,3.6-5.27c0.31-1.33-1.38-2-1.78-1.77C39.54,31.52,40.5,34.98,38.12,38.33z"/>
	</g>
	<g>
		<path class="st3" d="M32.73,42.45c1.41,0.42,2.76,0.92,4.21,1.1c2.69,0.35,5.11-0.36,7.45-1.57c0.47-0.24,0.91-0.56,1.4-0.76
			c0.77-0.32,1.21,0,1.26,0.83c0.1,1.94-1.01,3.17-3.32,3.46c-3.74,0.46-7.26-0.25-10.43-2.37c-0.19-0.13-0.37-0.28-0.54-0.43
			C32.73,42.69,32.74,42.6,32.73,42.45z"/>
		<path class="st4" d="M36.09,41.21c0.18-0.43,0.63-0.53,0.99-0.72c2.1-1.13,3.74-2.69,4.87-4.81c0.31-0.58,0.64-1.16,1.15-1.61
			c0.61-0.53,1.1-0.38,1.33,0.38c0.23,0.76,0.22,1.48-0.24,2.18c-1.82,2.79-4.44,4.25-7.66,4.77
			C36.37,41.43,36.19,41.44,36.09,41.21z"/>
		<path class="st5" d="M34.39,42.12c1.93,0.05,3.62-0.12,5.27-0.65c2.2-0.72,3.91-2.04,5.16-3.97c0.25-0.38,0.44-0.94,0.98-0.84
			c0.6,0.11,0.54,0.73,0.66,1.21c0.2,0.8-0.05,1.47-0.63,1.97c-3.18,2.74-6.86,3.53-10.94,2.68c-0.06-0.01-0.13-0.04-0.18-0.08
			C34.67,42.4,34.63,42.35,34.39,42.12z"/>
		<g>
			<path class="st6" d="M45.34,46.49c-1.95-0.03-3.91,0.14-5.86-0.2c-3.18-0.54-6.27-1.27-8.32-4.1c-0.08-0.12-0.19-0.17-0.41-0.04
				c0,0,0.39,2.07,2.59,4.38c1.52,1.59,5.18,2.97,8.11,3.39c2.29,0.33,3.86-0.45,4.68-2.18C46.59,46.8,46.42,46.51,45.34,46.49z"/>
		</g>
	</g>
	<g>
		<path class="st0" d="M50.26,48.45v-1.86c1.3,0.49,2.41,0.73,3.33,0.73c0.65,0,1.15-0.13,1.53-0.39c0.37-0.26,0.56-0.61,0.56-1.05
			c0-0.35-0.12-0.65-0.35-0.89c-0.23-0.24-0.68-0.53-1.33-0.86l-0.81-0.4c-1.08-0.55-1.84-1.07-2.29-1.57
			c-0.45-0.5-0.67-1.08-0.67-1.75c0-0.89,0.36-1.61,1.1-2.15c0.73-0.54,1.69-0.81,2.89-0.81c0.96,0,2.04,0.12,3.25,0.37v1.73
			c-1.23-0.41-2.21-0.62-2.92-0.62c-0.55,0-1,0.11-1.33,0.33c-0.33,0.22-0.5,0.51-0.5,0.87c0,0.3,0.12,0.56,0.35,0.78
			c0.23,0.22,0.67,0.5,1.32,0.83l0.86,0.43c1.16,0.58,1.96,1.12,2.4,1.62c0.44,0.49,0.66,1.09,0.66,1.8c0,1-0.42,1.79-1.25,2.36
			c-0.83,0.57-1.98,0.86-3.44,0.86C52.67,48.81,51.54,48.69,50.26,48.45z"/>
		<path class="st0" d="M59.14,48.54l4.69-10.82h2.51l4.69,10.82h-2.57l-1.25-2.89h-4.98l-1.25,2.89H59.14z M62.84,44.21h3.74
			l-1.87-4.31L62.84,44.21z"/>
		<path class="st0" d="M72.74,48.54V37.72h2.21l5.58,7.39v-7.39h2.01v10.82h-2.25l-5.54-7.39v7.39H72.74z"/>
		<path class="st0" d="M88.54,48.54v-9.34h-4.31v-1.48h11.74l-0.6,1.48h-4.31v9.34H88.54z"/>
		<path class="st0" d="M95.74,48.54l4.69-10.82h2.51l4.69,10.82h-2.57l-1.25-2.89h-4.98l-1.25,2.89H95.74z M99.43,44.21h3.74
			l-1.87-4.31L99.43,44.21z"/>
		<path class="st0" d="M114.83,48.54V37.72h3.32l2.9,7.61l2.99-7.61h2.91v10.82h-2.31v-8.17l-2.94,7.44h-2.02l-2.88-7.55v8.28
			H114.83z"/>
		<path class="st0" d="M128.64,48.54l4.69-10.82h2.51l4.69,10.82h-2.57l-1.25-2.89h-4.98l-1.25,2.89H128.64z M132.34,44.21h3.74
			l-1.87-4.31L132.34,44.21z"/>
		<path class="st0" d="M142.24,48.54V37.72h4.51c2.45,0,3.67,0.89,3.67,2.68c0,0.67-0.21,1.28-0.62,1.82
			c-0.42,0.55-0.99,0.97-1.71,1.26l3.94,5.05h-3.05l-2.99-4.42h-1.38v4.42H142.24z M144.6,42.63h0.58c1.82,0,2.73-0.66,2.73-1.98
			c0-0.97-0.81-1.45-2.43-1.45h-0.87V42.63z"/>
		<path class="st0" d="M153.47,36.81l1.96-2.35h2.21l-2.61,2.35H153.47z M153.74,48.54V37.72h2.51v10.82H153.74z"/>
		<path class="st0" d="M157.95,48.54l4.69-10.82h2.51l4.69,10.82h-2.57l-1.25-2.89h-4.98l-1.25,2.89H157.95z M161.65,44.21h3.74
			l-1.87-4.31L161.65,44.21z"/>
	</g>
	<g>
		<path d="M54.63,34.69c-0.61,0-1.39-0.13-2.34-0.39v-1.24c1.02,0.46,1.86,0.69,2.52,0.69c0.51,0,0.92-0.13,1.22-0.39
			c0.31-0.26,0.46-0.6,0.46-1.02c0-0.35-0.1-0.64-0.3-0.88c-0.2-0.24-0.58-0.51-1.12-0.81l-0.63-0.35
			c-0.77-0.43-1.32-0.84-1.64-1.22c-0.32-0.38-0.48-0.82-0.48-1.33c0-0.68,0.25-1.24,0.76-1.68c0.51-0.44,1.15-0.66,1.94-0.66
			c0.7,0,1.44,0.11,2.22,0.34v1.15c-0.96-0.37-1.67-0.55-2.14-0.55c-0.45,0-0.81,0.12-1.1,0.35c-0.29,0.23-0.44,0.52-0.44,0.87
			c0,0.29,0.11,0.56,0.32,0.78c0.21,0.23,0.6,0.5,1.17,0.81l0.65,0.36c0.79,0.43,1.33,0.84,1.65,1.23c0.31,0.39,0.47,0.85,0.47,1.39
			c0,0.77-0.29,1.39-0.87,1.85C56.36,34.45,55.59,34.69,54.63,34.69z"/>
		<path d="M71.24,34.46l-0.99-2.45h-3.85l-1,2.45h-1.2l3.6-8.85h1.28l3.55,8.85H71.24z M69.88,31.08l-1.55-3.81l-1.55,3.81H69.88z"
			/>
		<path d="M79.61,34.46v-8.85h1.26l4.57,6.83v-6.83h1.1v8.85h-1.26l-4.58-6.83v6.83H79.61z"/>
		<path d="M100.52,34.46l-0.99-2.45h-3.85l-1,2.45h-1.2l3.6-8.85h1.28l3.55,8.85H100.52z M99.16,31.08l-1.55-3.81l-1.55,3.81H99.16z
			"/>
		<path d="M111.05,34.46v-7.91h-3.22v-0.94h7.73v0.94h-3.22v7.91H111.05z"/>
		<path d="M126.15,34.69c-1.26,0-2.27-0.43-3.04-1.28c-0.77-0.85-1.15-1.98-1.15-3.37c0-1.41,0.39-2.53,1.16-3.37
			c0.77-0.84,1.8-1.26,3.09-1.26c1.28,0,2.31,0.42,3.09,1.26c0.77,0.84,1.16,1.96,1.16,3.37c0,1.43-0.39,2.57-1.16,3.4
			C128.52,34.27,127.47,34.69,126.15,34.69z M126.17,33.75c0.93,0,1.65-0.33,2.15-0.98c0.51-0.65,0.76-1.57,0.76-2.76
			c0-1.15-0.25-2.05-0.76-2.7c-0.51-0.65-1.21-0.97-2.11-0.97c-0.9,0-1.61,0.33-2.12,0.98c-0.51,0.65-0.76,1.56-0.76,2.72
			c0,1.16,0.25,2.06,0.76,2.73C124.58,33.42,125.28,33.75,126.17,33.75z"/>
		<path d="M137.91,34.46v-8.85h2.75c0.87,0,1.54,0.19,2,0.56c0.46,0.37,0.7,0.92,0.7,1.63c0,1.18-0.61,2.02-1.84,2.51l3.03,4.14
			h-1.58l-2.58-3.74h-1.2v3.74H137.91z M139.19,29.78h0.42c1.62,0,2.43-0.62,2.43-1.86c0-0.91-0.68-1.37-2.04-1.37h-0.81V29.78z"/>
		<path d="M151.52,34.46v-8.85h1.29v8.85H151.52z"/>
		<path d="M164.46,34.69c-1.26,0-2.27-0.43-3.04-1.28c-0.77-0.85-1.15-1.98-1.15-3.37c0-1.41,0.39-2.53,1.16-3.37
			c0.77-0.84,1.8-1.26,3.09-1.26c1.28,0,2.31,0.42,3.09,1.26c0.77,0.84,1.16,1.96,1.16,3.37c0,1.43-0.39,2.57-1.16,3.4
			C166.83,34.27,165.78,34.69,164.46,34.69z M164.48,33.75c0.93,0,1.65-0.33,2.15-0.98c0.51-0.65,0.76-1.57,0.76-2.76
			c0-1.15-0.25-2.05-0.76-2.7c-0.51-0.65-1.21-0.97-2.11-0.97c-0.9,0-1.61,0.33-2.12,0.98c-0.51,0.65-0.76,1.56-0.76,2.72
			c0,1.16,0.25,2.06,0.76,2.73C162.89,33.42,163.59,33.75,164.48,33.75z"/>
	</g>
</g>
</svg>
